<svg version="1.2" xmlns="http://www.w3.org/2000/svg" viewBox="0 0 72 51" width="72" height="51">
	<title>Group 5-svg</title>
	<style>
		.s0 { fill: #ffffff } 
	</style>
	<path id="Layer" class="s0" d="m19.6 32.4l7.5-3q0.5-0.2 0.8-0.7 0.3-0.4 0.2-1l-0.5-5.2c5.4-1.9 11.3-1.9 16.7 0l-0.6 5.2q0 0.6 0.3 1 0.2 0.5 0.7 0.7l7.6 3c0.3 0.1 0.7 0.1 1 0 0.4-0.1 0.7-0.3 0.9-0.7l3.8-6q0.3-0.5 0.2-1-0.1-0.6-0.5-1c-12-12-31.6-12-43.6 0q-0.4 0.4-0.5 1 0 0.5 0.3 1l3.7 6c0.2 0.4 0.5 0.6 0.9 0.7 0.4 0.1 0.7 0.1 1.1 0z"/>
</svg>